# Blender 4.3.2
# www.blender.org
mtllib My_practice.mtl
o Cube
v -0.197696 -0.782504 0.040717
v -0.197696 0.782504 0.040717
v -0.197696 -0.782504 -0.040717
v -0.197696 0.782504 -0.040717
v 0.197696 -0.782504 0.040717
v 0.197696 0.782504 0.040717
v 0.197696 -0.782504 -0.040717
v 0.197696 0.782504 -0.040717
v 0.000000 -0.782504 -0.040717
v 0.000000 1.054725 -0.040717
v 0.000000 -0.782504 0.040717
v 0.000000 1.054725 0.040717
v -0.869862 -0.782504 0.040717
v -0.869862 0.782504 0.040717
v -0.869862 -0.782504 -0.040717
v -0.869862 0.782504 -0.040717
v -0.474470 -0.782504 0.040717
v -0.474470 0.782504 0.040717
v -0.474470 -0.782504 -0.040717
v -0.474470 0.782504 -0.040717
v -0.672166 -0.782504 -0.040717
v -0.672166 1.054725 -0.040717
v -0.672166 -0.782504 0.040717
v -0.672166 1.054725 0.040717
v -1.542029 -0.782504 0.040717
v -1.542029 0.782504 0.040717
v -1.542029 -0.782504 -0.040717
v -1.542029 0.782504 -0.040717
v -1.146637 -0.782504 0.040717
v -1.146637 0.782504 0.040717
v -1.146637 -0.782504 -0.040717
v -1.146637 0.782504 -0.040717
v -1.344333 -0.782504 -0.040717
v -1.344333 1.054725 -0.040717
v -1.344333 -0.782504 0.040717
v -1.344333 1.054725 0.040717
v -2.214195 -0.782504 0.040717
v -2.214195 0.782504 0.040717
v -2.214195 -0.782504 -0.040717
v -2.214195 0.782504 -0.040717
v -1.818803 -0.782504 0.040717
v -1.818803 0.782504 0.040717
v -1.818803 -0.782504 -0.040717
v -1.818803 0.782504 -0.040717
v -2.016499 -0.782504 -0.040717
v -2.016499 1.054725 -0.040717
v -2.016499 -0.782504 0.040717
v -2.016499 1.054725 0.040717
v -2.886362 -0.782504 0.040717
v -2.886362 0.782504 0.040717
v -2.886362 -0.782504 -0.040717
v -2.886362 0.782504 -0.040717
v -2.490970 -0.782504 0.040717
v -2.490970 0.782504 0.040717
v -2.490970 -0.782504 -0.040717
v -2.490970 0.782504 -0.040717
v -2.688666 -0.782504 -0.040717
v -2.688666 1.054725 -0.040717
v -2.688666 -0.782504 0.040717
v -2.688666 1.054725 0.040717
v -3.558528 -0.782504 0.040717
v -3.558528 0.782504 0.040717
v -3.558528 -0.782504 -0.040717
v -3.558528 0.782504 -0.040717
v -3.163136 -0.782504 0.040717
v -3.163136 0.782504 0.040717
v -3.163136 -0.782504 -0.040717
v -3.163136 0.782504 -0.040717
v -3.360832 -0.782504 -0.040717
v -3.360832 1.054725 -0.040717
v -3.360832 -0.782504 0.040717
v -3.360832 1.054725 0.040717
v -4.230695 -0.782504 0.040717
v -4.230695 0.782504 0.040717
v -4.230695 -0.782504 -0.040717
v -4.230695 0.782504 -0.040717
v -3.835303 -0.782504 0.040717
v -3.835303 0.782504 0.040717
v -3.835303 -0.782504 -0.040717
v -3.835303 0.782504 -0.040717
v -4.032999 -0.782504 -0.040717
v -4.032999 1.054725 -0.040717
v -4.032999 -0.782504 0.040717
v -4.032999 1.054725 0.040717
vn -1.0000 -0.0000 -0.0000
vn -0.0000 -0.0000 -1.0000
vn 1.0000 -0.0000 -0.0000
vn -0.0000 -0.0000 1.0000
vn -0.0000 -1.0000 -0.0000
vn -0.8091 0.5876 -0.0000
vn 0.8091 0.5876 -0.0000
vt 0.375000 0.000000
vt 0.625000 0.000000
vt 0.625000 0.250000
vt 0.375000 0.250000
vt 0.375000 0.375000
vt 0.625000 0.375000
vt 0.625000 0.500000
vt 0.375000 0.500000
vt 0.625000 0.750000
vt 0.375000 0.750000
vt 0.375000 0.875000
vt 0.625000 0.875000
vt 0.625000 1.000000
vt 0.375000 1.000000
vt 0.250000 0.500000
vt 0.250000 0.750000
vt 0.750000 0.500000
vt 0.875000 0.500000
vt 0.875000 0.750000
vt 0.750000 0.750000
vt 0.125000 0.500000
vt 0.125000 0.750000
s 0
f 1/1/1 2/2/1 4/3/1 3/4/1
f 9/5/2 10/6/2 8/7/2 7/8/2
f 7/8/3 8/7/3 6/9/3 5/10/3
f 11/11/4 12/12/4 2/13/4 1/14/4
f 9/15/5 7/8/5 5/10/5 11/16/5
f 10/17/6 4/18/6 2/19/6 12/20/6
f 8/7/7 10/17/7 12/20/7 6/9/7
f 3/21/5 9/15/5 11/16/5 1/22/5
f 5/10/4 6/9/4 12/12/4 11/11/4
f 3/4/2 4/3/2 10/6/2 9/5/2
f 13/1/1 14/2/1 16/3/1 15/4/1
f 21/5/2 22/6/2 20/7/2 19/8/2
f 19/8/3 20/7/3 18/9/3 17/10/3
f 23/11/4 24/12/4 14/13/4 13/14/4
f 21/15/5 19/8/5 17/10/5 23/16/5
f 22/17/6 16/18/6 14/19/6 24/20/6
f 20/7/7 22/17/7 24/20/7 18/9/7
f 15/21/5 21/15/5 23/16/5 13/22/5
f 17/10/4 18/9/4 24/12/4 23/11/4
f 15/4/2 16/3/2 22/6/2 21/5/2
f 25/1/1 26/2/1 28/3/1 27/4/1
f 33/5/2 34/6/2 32/7/2 31/8/2
f 31/8/3 32/7/3 30/9/3 29/10/3
f 35/11/4 36/12/4 26/13/4 25/14/4
f 33/15/5 31/8/5 29/10/5 35/16/5
f 34/17/6 28/18/6 26/19/6 36/20/6
f 32/7/7 34/17/7 36/20/7 30/9/7
f 27/21/5 33/15/5 35/16/5 25/22/5
f 29/10/4 30/9/4 36/12/4 35/11/4
f 27/4/2 28/3/2 34/6/2 33/5/2
f 37/1/1 38/2/1 40/3/1 39/4/1
f 45/5/2 46/6/2 44/7/2 43/8/2
f 43/8/3 44/7/3 42/9/3 41/10/3
f 47/11/4 48/12/4 38/13/4 37/14/4
f 45/15/5 43/8/5 41/10/5 47/16/5
f 46/17/6 40/18/6 38/19/6 48/20/6
f 44/7/7 46/17/7 48/20/7 42/9/7
f 39/21/5 45/15/5 47/16/5 37/22/5
f 41/10/4 42/9/4 48/12/4 47/11/4
f 39/4/2 40/3/2 46/6/2 45/5/2
f 49/1/1 50/2/1 52/3/1 51/4/1
f 57/5/2 58/6/2 56/7/2 55/8/2
f 55/8/3 56/7/3 54/9/3 53/10/3
f 59/11/4 60/12/4 50/13/4 49/14/4
f 57/15/5 55/8/5 53/10/5 59/16/5
f 58/17/6 52/18/6 50/19/6 60/20/6
f 56/7/7 58/17/7 60/20/7 54/9/7
f 51/21/5 57/15/5 59/16/5 49/22/5
f 53/10/4 54/9/4 60/12/4 59/11/4
f 51/4/2 52/3/2 58/6/2 57/5/2
f 61/1/1 62/2/1 64/3/1 63/4/1
f 69/5/2 70/6/2 68/7/2 67/8/2
f 67/8/3 68/7/3 66/9/3 65/10/3
f 71/11/4 72/12/4 62/13/4 61/14/4
f 69/15/5 67/8/5 65/10/5 71/16/5
f 70/17/6 64/18/6 62/19/6 72/20/6
f 68/7/7 70/17/7 72/20/7 66/9/7
f 63/21/5 69/15/5 71/16/5 61/22/5
f 65/10/4 66/9/4 72/12/4 71/11/4
f 63/4/2 64/3/2 70/6/2 69/5/2
f 73/1/1 74/2/1 76/3/1 75/4/1
f 81/5/2 82/6/2 80/7/2 79/8/2
f 79/8/3 80/7/3 78/9/3 77/10/3
f 83/11/4 84/12/4 74/13/4 73/14/4
f 81/15/5 79/8/5 77/10/5 83/16/5
f 82/17/6 76/18/6 74/19/6 84/20/6
f 80/7/7 82/17/7 84/20/7 78/9/7
f 75/21/5 81/15/5 83/16/5 73/22/5
f 77/10/4 78/9/4 84/12/4 83/11/4
f 75/4/2 76/3/2 82/6/2 81/5/2
o Cube.001
v -4.279504 0.162464 -0.089456
v -4.279504 0.393106 -0.089456
v -4.279504 0.162464 0.089456
v -4.279504 0.393106 0.089456
v 0.276201 0.162464 -0.089456
v 0.276201 0.393106 -0.089456
v 0.276201 0.162464 0.089456
v 0.276201 0.393106 0.089456
v -4.279504 -0.529460 -0.089456
v -4.279504 -0.298819 -0.089456
v -4.279504 -0.529460 0.089456
v -4.279504 -0.298819 0.089456
v 0.276201 -0.529460 -0.089456
v 0.276201 -0.298819 -0.089456
v 0.276201 -0.529460 0.089456
v 0.276201 -0.298819 0.089456
vn -1.0000 -0.0000 -0.0000
vn -0.0000 -0.0000 1.0000
vn 1.0000 -0.0000 -0.0000
vn -0.0000 -0.0000 -1.0000
vn -0.0000 -1.0000 -0.0000
vn -0.0000 1.0000 -0.0000
vt 0.375000 0.000000
vt 0.625000 0.000000
vt 0.625000 0.250000
vt 0.375000 0.250000
vt 0.625000 0.500000
vt 0.375000 0.500000
vt 0.625000 0.750000
vt 0.375000 0.750000
vt 0.625000 1.000000
vt 0.375000 1.000000
vt 0.125000 0.500000
vt 0.125000 0.750000
vt 0.875000 0.500000
vt 0.875000 0.750000
s 0
f 85/23/8 87/26/8 88/25/8 86/24/8
f 87/26/9 91/28/9 92/27/9 88/25/9
f 91/28/10 89/30/10 90/29/10 92/27/10
f 89/30/11 85/32/11 86/31/11 90/29/11
f 87/33/12 85/34/12 89/30/12 91/28/12
f 92/27/13 90/29/13 86/36/13 88/35/13
f 93/23/8 95/26/8 96/25/8 94/24/8
f 95/26/9 99/28/9 100/27/9 96/25/9
f 99/28/10 97/30/10 98/29/10 100/27/10
f 97/30/11 93/32/11 94/31/11 98/29/11
f 95/33/12 93/34/12 97/30/12 99/28/12
f 100/27/13 98/29/13 94/36/13 96/35/13
